<svg xmlns="http://www.w3.org/2000/svg" width="133" height="235" viewBox="0 0 133 235"><defs><style>.a{opacity:0.24;}.b{fill:#f3f3f3;}</style></defs><g class="a" transform="translate(-15121 1430) rotate(-90)"><circle class="b" cx="15.5" cy="15.5" r="15.5" transform="translate(1195 15121)"/><circle class="b" cx="15.5" cy="15.5" r="15.5" transform="translate(1246 15121)"/><circle class="b" cx="15.5" cy="15.5" r="15.5" transform="translate(1297 15121)"/><circle class="b" cx="15.5" cy="15.5" r="15.5" transform="translate(1348 15121)"/><circle class="b" cx="15.5" cy="15.5" r="15.5" transform="translate(1399 15121)"/><circle class="b" cx="15.5" cy="15.5" r="15.5" transform="translate(1195 15172)"/><circle class="b" cx="15.5" cy="15.5" r="15.5" transform="translate(1246 15172)"/><circle class="b" cx="15.5" cy="15.5" r="15.5" transform="translate(1297 15172)"/><circle class="b" cx="15.5" cy="15.5" r="15.5" transform="translate(1348 15172)"/><circle class="b" cx="15.5" cy="15.5" r="15.5" transform="translate(1399 15172)"/><circle class="b" cx="15.5" cy="15.5" r="15.5" transform="translate(1195 15223)"/><circle class="b" cx="15.5" cy="15.5" r="15.5" transform="translate(1246 15223)"/><circle class="b" cx="15.5" cy="15.5" r="15.5" transform="translate(1297 15223)"/><circle class="b" cx="15.5" cy="15.5" r="15.5" transform="translate(1348 15223)"/><circle class="b" cx="15.5" cy="15.5" r="15.5" transform="translate(1399 15223)"/></g></svg>