<svg xmlns="http://www.w3.org/2000/svg" width="235" height="133" viewBox="0 0 235 133"><defs><style>.a{opacity:0.24;}.b{fill:#f3f3f3;}</style></defs><g class="a" transform="translate(1430 15254) rotate(180)"><circle class="b" cx="15.5" cy="15.5" r="15.5" transform="translate(1195 15121)"/><circle class="b" cx="15.5" cy="15.5" r="15.5" transform="translate(1246 15121)"/><circle class="b" cx="15.5" cy="15.5" r="15.5" transform="translate(1297 15121)"/><circle class="b" cx="15.5" cy="15.5" r="15.5" transform="translate(1348 15121)"/><circle class="b" cx="15.5" cy="15.5" r="15.5" transform="translate(1399 15121)"/><circle class="b" cx="15.5" cy="15.5" r="15.5" transform="translate(1195 15172)"/><circle class="b" cx="15.5" cy="15.5" r="15.5" transform="translate(1246 15172)"/><circle class="b" cx="15.5" cy="15.5" r="15.5" transform="translate(1297 15172)"/><circle class="b" cx="15.5" cy="15.5" r="15.5" transform="translate(1348 15172)"/><circle class="b" cx="15.5" cy="15.5" r="15.5" transform="translate(1399 15172)"/><circle class="b" cx="15.5" cy="15.5" r="15.5" transform="translate(1195 15223)"/><circle class="b" cx="15.5" cy="15.5" r="15.5" transform="translate(1246 15223)"/><circle class="b" cx="15.5" cy="15.5" r="15.5" transform="translate(1297 15223)"/><circle class="b" cx="15.5" cy="15.5" r="15.5" transform="translate(1348 15223)"/><circle class="b" cx="15.5" cy="15.5" r="15.5" transform="translate(1399 15223)"/></g></svg>