<svg xmlns="http://www.w3.org/2000/svg" width="42.172" height="42.173" viewBox="0 0 42.172 42.173"><defs><style>.a{fill:#c8102e;}</style></defs><path class="a" d="M40.64,2.026,32.073.05a1.99,1.99,0,0,0-2.265,1.145l-3.954,9.225a1.972,1.972,0,0,0,.568,2.306l4.991,4.085a30.526,30.526,0,0,1-14.6,14.6l-4.085-4.991a1.975,1.975,0,0,0-2.306-.568L1.2,29.8A2,2,0,0,0,.05,32.074L2.026,40.64a1.976,1.976,0,0,0,1.927,1.532A38.214,38.214,0,0,0,42.172,3.954,1.974,1.974,0,0,0,40.64,2.026Z" transform="translate(0.001 0.001)"/></svg>
