<?xml version="1.0" encoding="utf-8"?>
<!-- Generator: Adobe Illustrator 22.0.1, SVG Export Plug-In . SVG Version: 6.00 Build 0)  -->
<svg version="1.1" id="Layer_1" xmlns="http://www.w3.org/2000/svg" xmlns:xlink="http://www.w3.org/1999/xlink" x="0px" y="0px"
	 viewBox="0 0 654.1 223.3" style="enable-background:new 0 0 654.1 223.3;" xml:space="preserve">
<style type="text/css">
	.st0{fill:#FFFFFF;}
	.st1{fill:#C8102E;}
</style>
<rect x="83.8" y="192" class="st0" width="227.7" height="21.8"/>
<path class="st1" d="M77.5,176.7H49.2V121H29v55.7H1.2V37h53.6L76.2,58v35.6l-15.9,13.8l17.1,14.6V176.7z M49.2,63H29v32h20.2V63z"
	/>
<path class="st1" d="M166,155.8l-20.6,21h-33.8l-21.9-21V58L111.5,37h32.8L166,58V155.8z M138.1,63h-19.6v87.8h19.6V63z"/>
<polygon class="st1" points="255.7,155.8 234.4,176.7 201,176.7 179.8,155.8 179.8,58 201,37 233.4,37 255.7,58 255.7,90 227.4,90 
	227.4,63 207.6,63 207.6,150.8 227.4,150.8 227.4,117 255.7,117 "/>
<polygon class="st1" points="353.4,176.7 321.9,176.7 297.3,114.7 297.3,176.7 269.5,176.7 269.5,37 297.3,37 297.3,100.9 319.8,37 
	350.1,37 323.1,102.2 "/>
<polygon class="st0" points="421.1,64.5 402.1,64.5 402.1,176.7 373.2,176.7 373.2,64.5 353.8,64.5 353.8,37 421.1,37 "/>
<path class="st0" d="M507.5,176.7h-28.9l-3.3-25.8h-23.5l-3.1,25.8h-28.9L440.7,37H485L507.5,176.7z M472.2,124.6L464.6,63h-3.7
	l-6.4,61.6H472.2z"/>
<path class="st0" d="M586,108.9L564,129.2h-23.7v47.6h-27.8V37H564L586,58V108.9z M558.2,63h-17.9v40.2h17.9V63z"/>
<polygon class="st0" points="654.1,176.7 595.1,176.7 595.1,37 654.1,37 654.1,63 622.9,63 622.9,90 649.3,90 649.3,116 622.9,116 
	622.9,150.8 654.1,150.8 "/>
<rect x="25.8" y="192" class="st0" width="47.3" height="21.8"/>
<rect y="192" class="st0" width="19.3" height="21.8"/>
<rect x="341.6" class="st1" width="227.7" height="21.8"/>
<rect x="580" class="st1" width="47.3" height="21.8"/>
<path class="st0" d="M357.6,195.2l-1.9,1.8c-1.4-1.4-2.9-2.4-4.5-3.1c-1.6-0.7-3.2-1.1-4.8-1.1c-1.9,0-3.8,0.5-5.5,1.5
	c-1.7,1-3.1,2.3-4.1,3.9c-1,1.7-1.4,3.4-1.4,5.2c0,1.9,0.5,3.7,1.5,5.4c1,1.7,2.4,3,4.1,4c1.8,1,3.7,1.5,5.8,1.5
	c2.5,0,4.7-0.7,6.4-2.2c1.8-1.5,2.8-3.3,3.1-5.7h-7.9V204h10.6c0,3.9-1.2,7-3.4,9.2c-2.2,2.3-5.2,3.4-9,3.4c-4.6,0-8.2-1.6-10.8-4.7
	c-2-2.4-3.1-5.2-3.1-8.4c0-2.4,0.6-4.6,1.8-6.6c1.2-2.1,2.8-3.7,4.8-4.8c2.1-1.1,4.4-1.7,6.9-1.7c2.1,0,4.1,0.4,5.9,1.1
	C354.1,192.2,355.9,193.5,357.6,195.2"/>
<path class="st0" d="M372.1,197c2.8,0,5.1,1,7,3.1c1.7,1.9,2.5,4.1,2.5,6.7s-0.9,4.8-2.7,6.8c-1.8,1.9-4.1,2.9-6.9,2.9
	c-2.8,0-5.1-1-6.9-2.9c-1.8-1.9-2.7-4.2-2.7-6.8c0-2.6,0.8-4.8,2.5-6.7C366.9,198,369.2,197,372.1,197 M372,199.3
	c-1.9,0-3.6,0.7-5,2.2c-1.4,1.5-2.1,3.2-2.1,5.3c0,1.3,0.3,2.6,1,3.7c0.6,1.2,1.5,2,2.6,2.7c1.1,0.6,2.3,1,3.6,1s2.5-0.3,3.6-1
	c1.1-0.6,2-1.5,2.6-2.7c0.6-1.2,1-2.4,1-3.7c0-2.1-0.7-3.8-2.1-5.3C375.7,200.1,374,199.3,372,199.3"/>
<path class="st0" d="M404.6,199.5l-1.5,1.6c-1.3-1.2-2.5-1.9-3.7-1.9c-0.8,0-1.4,0.2-2,0.8c-0.5,0.5-0.8,1.1-0.8,1.8
	c0,0.6,0.2,1.2,0.7,1.7c0.5,0.6,1.4,1.2,2.8,2c1.7,0.9,2.9,1.8,3.6,2.7c0.6,0.9,0.9,1.8,0.9,2.9c0,1.5-0.5,2.8-1.6,3.9
	c-1,1-2.4,1.6-3.9,1.6c-1.1,0-2.1-0.2-3-0.7c-1-0.5-1.8-1.1-2.4-1.9l1.5-1.7c1.2,1.4,2.5,2.1,3.8,2.1c0.9,0,1.7-0.3,2.4-0.9
	c0.7-0.6,1-1.3,1-2.2c0-0.7-0.2-1.3-0.7-1.8c-0.4-0.5-1.4-1.2-3-2c-1.6-0.9-2.8-1.7-3.4-2.6c-0.6-0.8-0.9-1.8-0.9-2.9
	c0-1.4,0.5-2.6,1.4-3.5c0.9-0.9,2.1-1.4,3.6-1.4C401.2,197,402.9,197.8,404.6,199.5"/>
<polygon class="st0" points="410.8,190.6 413.2,190.6 413.2,197.5 416.9,197.5 416.9,199.5 413.2,199.5 413.2,216 410.8,216 
	410.8,199.5 407.6,199.5 407.6,197.5 410.8,197.5 "/>
<path class="st0" d="M419.5,197.5h2.4v2.7c0.7-1.1,1.5-1.9,2.3-2.4c0.8-0.5,1.6-0.8,2.5-0.8c0.7,0,1.3,0.2,2.1,0.6l-1.2,2
	c-0.5-0.2-0.9-0.3-1.2-0.3c-0.8,0-1.5,0.3-2.3,1c-0.7,0.7-1.3,1.7-1.7,3.1c-0.3,1-0.4,3.2-0.4,6.4v6.3h-2.4V197.5z"/>
<path class="st0" d="M439.3,197c2.8,0,5.1,1,7,3.1c1.7,1.9,2.5,4.1,2.5,6.7s-0.9,4.8-2.7,6.8c-1.8,1.9-4.1,2.9-6.8,2.9
	c-2.8,0-5.1-1-6.9-2.9c-1.8-1.9-2.7-4.2-2.7-6.8c0-2.6,0.8-4.8,2.5-6.7C434.2,198,436.5,197,439.3,197 M439.3,199.3
	c-2,0-3.6,0.7-5,2.2c-1.4,1.5-2.1,3.2-2.1,5.3c0,1.3,0.3,2.6,1,3.7c0.6,1.2,1.5,2,2.6,2.7c1.1,0.6,2.3,1,3.6,1c1.3,0,2.5-0.3,3.6-1
	c1.1-0.6,2-1.5,2.6-2.7c0.6-1.2,1-2.4,1-3.7c0-2.1-0.7-3.8-2.1-5.3C442.9,200.1,441.3,199.3,439.3,199.3"/>
<path class="st0" d="M453.2,197.5h2.3v3.3c0.9-1.3,2-2.2,3.1-2.9c1.1-0.6,2.4-0.9,3.7-0.9c1.4,0,2.6,0.3,3.6,1
	c1.1,0.7,1.8,1.7,2.3,2.8c0.5,1.2,0.8,3.1,0.8,5.6v9.5h-2.3v-8.9c0-2.1-0.1-3.6-0.3-4.3c-0.3-1.2-0.8-2.2-1.6-2.8
	c-0.8-0.6-1.8-0.9-3-0.9c-1.4,0-2.7,0.5-3.8,1.4c-1.1,0.9-1.9,2.1-2.2,3.6c-0.2,0.9-0.3,2.6-0.3,5v6.8h-2.3V197.5z"/>
<path class="st0" d="M489.9,197.5h2.3v14.8c0,2.6-0.2,4.5-0.7,5.7c-0.6,1.7-1.7,3-3.2,3.9c-1.5,0.9-3.3,1.4-5.5,1.4
	c-1.6,0-3-0.2-4.2-0.7c-1.2-0.4-2.3-1.1-3-1.8c-0.8-0.8-1.5-1.9-2.2-3.3h2.5c0.7,1.2,1.6,2.1,2.7,2.7c1.1,0.6,2.5,0.9,4.1,0.9
	c1.6,0,3-0.3,4.1-0.9c1.1-0.6,1.9-1.4,2.4-2.3c0.5-0.9,0.7-2.4,0.7-4.4v-1c-0.9,1.1-2,2-3.2,2.6c-1.3,0.6-2.6,0.9-4.1,0.9
	c-1.7,0-3.3-0.4-4.7-1.3c-1.5-0.8-2.6-2-3.4-3.4c-0.8-1.4-1.2-3-1.2-4.7c0-1.7,0.4-3.3,1.3-4.8c0.8-1.5,2-2.7,3.5-3.5
	c1.5-0.9,3-1.3,4.7-1.3c1.4,0,2.6,0.3,3.8,0.9c1.2,0.6,2.3,1.5,3.4,2.8V197.5z M483,199.3c-1.3,0-2.6,0.3-3.7,1
	c-1.1,0.7-2,1.6-2.7,2.7c-0.6,1.1-1,2.4-1,3.7c0,2,0.7,3.7,2,5.1c1.3,1.3,3.1,2,5.2,2c2.2,0,3.9-0.7,5.2-2c1.3-1.3,2-3.1,2-5.2
	c0-1.4-0.3-2.7-0.9-3.7c-0.6-1.1-1.5-2-2.6-2.6C485.4,199.6,484.2,199.3,483,199.3"/>
<path class="st0" d="M512.7,209.9l2,1.1c-0.6,1.3-1.4,2.3-2.2,3.1c-0.9,0.8-1.8,1.4-2.9,1.8c-1.1,0.4-2.3,0.6-3.6,0.6
	c-3,0-5.3-1-7-3c-1.7-2-2.5-4.2-2.5-6.7c0-2.4,0.7-4.5,2.1-6.3c1.8-2.3,4.2-3.5,7.2-3.5c3.1,0,5.6,1.2,7.5,3.6c1.3,1.7,2,3.8,2,6.3
	h-16.4c0,2.2,0.7,3.9,2,5.3c1.3,1.4,2.9,2.1,4.9,2.1c0.9,0,1.8-0.2,2.7-0.5c0.9-0.3,1.6-0.8,2.2-1.3
	C511.3,212,511.9,211.1,512.7,209.9 M512.7,204.9c-0.3-1.3-0.8-2.3-1.4-3.1c-0.6-0.8-1.4-1.4-2.4-1.8c-1-0.5-2-0.7-3.1-0.7
	c-1.8,0-3.3,0.6-4.6,1.8c-0.9,0.9-1.7,2.1-2.1,3.8H512.7z"/>
<path class="st0" d="M518.7,197.5h2.4v2.7c0.7-1.1,1.5-1.9,2.3-2.4c0.8-0.5,1.6-0.8,2.5-0.8c0.7,0,1.3,0.2,2.1,0.6l-1.2,2
	c-0.5-0.2-0.9-0.3-1.2-0.3c-0.8,0-1.5,0.3-2.3,1c-0.7,0.7-1.3,1.7-1.7,3.1c-0.3,1-0.4,3.2-0.4,6.4v6.3h-2.4V197.5z"/>
<polygon class="st0" points="528.8,211.4 531,212.5 527.6,219 526,218.2 "/>
<rect x="545.1" y="190.3" class="st0" width="2.3" height="25.7"/>
<path class="st0" d="M561,197c2.8,0,5.1,1,7,3.1c1.7,1.9,2.5,4.1,2.5,6.7s-0.9,4.8-2.7,6.8c-1.8,1.9-4.1,2.9-6.8,2.9
	c-2.8,0-5.1-1-6.9-2.9c-1.8-1.9-2.7-4.2-2.7-6.8c0-2.6,0.8-4.8,2.5-6.7C555.8,198,558.1,197,561,197 M561,199.3c-2,0-3.6,0.7-5,2.2
	c-1.4,1.5-2.1,3.2-2.1,5.3c0,1.3,0.3,2.6,1,3.7c0.6,1.2,1.5,2,2.6,2.7c1.1,0.6,2.3,1,3.6,1c1.3,0,2.5-0.3,3.6-1
	c1.1-0.6,2-1.5,2.6-2.7c0.6-1.2,1-2.4,1-3.7c0-2.1-0.7-3.8-2.1-5.3C564.6,200.1,562.9,199.3,561,199.3"/>
<path class="st0" d="M574.8,197.5h2.4v3.3c0.9-1.3,2-2.2,3.1-2.9c1.1-0.6,2.4-0.9,3.7-0.9c1.4,0,2.6,0.3,3.6,1
	c1.1,0.7,1.8,1.7,2.3,2.8c0.5,1.2,0.8,3.1,0.8,5.6v9.5h-2.4v-8.9c0-2.1-0.1-3.6-0.3-4.3c-0.3-1.2-0.8-2.2-1.6-2.8
	c-0.8-0.6-1.8-0.9-3-0.9c-1.4,0-2.7,0.5-3.8,1.4c-1.1,0.9-1.9,2.1-2.2,3.6c-0.2,0.9-0.3,2.6-0.3,5v6.8h-2.4V197.5z"/>
<path class="st0" d="M611.5,197.5h2.4v14.8c0,2.6-0.2,4.5-0.7,5.7c-0.6,1.7-1.7,3-3.2,3.9c-1.5,0.9-3.4,1.4-5.5,1.4
	c-1.6,0-3-0.2-4.2-0.7c-1.2-0.4-2.3-1.1-3-1.8c-0.8-0.8-1.5-1.9-2.2-3.3h2.5c0.7,1.2,1.6,2.1,2.7,2.7c1.1,0.6,2.5,0.9,4.1,0.9
	c1.6,0,3-0.3,4.1-0.9c1.1-0.6,1.9-1.4,2.4-2.3c0.5-0.9,0.7-2.4,0.7-4.4v-1c-0.9,1.1-2,2-3.2,2.6c-1.3,0.6-2.6,0.9-4.1,0.9
	c-1.7,0-3.3-0.4-4.7-1.3c-1.5-0.8-2.6-2-3.4-3.4c-0.8-1.4-1.2-3-1.2-4.7c0-1.7,0.4-3.3,1.3-4.8c0.8-1.5,2-2.7,3.5-3.5
	c1.5-0.9,3.1-1.3,4.7-1.3c1.4,0,2.6,0.3,3.8,0.9c1.2,0.6,2.3,1.5,3.4,2.8V197.5z M604.6,199.3c-1.3,0-2.6,0.3-3.7,1
	c-1.1,0.7-2,1.6-2.7,2.7c-0.7,1.1-1,2.4-1,3.7c0,2,0.7,3.7,2,5.1c1.3,1.3,3.1,2,5.2,2c2.2,0,3.9-0.7,5.2-2c1.3-1.3,2-3.1,2-5.2
	c0-1.4-0.3-2.7-0.9-3.7c-0.6-1.1-1.5-2-2.6-2.6C607.1,199.6,605.9,199.3,604.6,199.3"/>
<path class="st0" d="M634.3,209.9l2,1.1c-0.6,1.3-1.4,2.3-2.3,3.1c-0.8,0.8-1.8,1.4-2.9,1.8c-1.1,0.4-2.3,0.6-3.6,0.6
	c-3,0-5.3-1-7-3c-1.7-2-2.5-4.2-2.5-6.7c0-2.4,0.7-4.5,2.1-6.3c1.8-2.3,4.2-3.5,7.2-3.5c3.1,0,5.6,1.2,7.5,3.6c1.3,1.7,2,3.8,2,6.3
	h-16.4c0,2.2,0.7,3.9,2,5.3c1.3,1.4,2.9,2.1,4.9,2.1c0.9,0,1.8-0.2,2.7-0.5c0.9-0.3,1.6-0.8,2.2-1.3
	C632.9,212,633.6,211.1,634.3,209.9 M634.3,204.9c-0.3-1.3-0.8-2.3-1.4-3.1c-0.6-0.8-1.4-1.4-2.4-1.8c-1-0.5-2-0.7-3.1-0.7
	c-1.8,0-3.3,0.6-4.6,1.8c-0.9,0.9-1.7,2.1-2.1,3.8H634.3z"/>
<path class="st0" d="M640.4,197.5h2.4v2.7c0.7-1.1,1.5-1.9,2.3-2.4c0.8-0.5,1.6-0.8,2.5-0.8c0.6,0,1.3,0.2,2.1,0.6l-1.2,2
	c-0.5-0.2-0.9-0.3-1.2-0.3c-0.8,0-1.5,0.3-2.3,1c-0.7,0.7-1.3,1.7-1.7,3.1c-0.3,1-0.4,3.2-0.4,6.4v6.3h-2.4V197.5z"/>
<g>
	<path class="st1" d="M643.6,8.4c-0.4,0-0.8,0-0.9,0.1v2.1h0.8c0.9,0,1.7-0.3,1.7-1.1C645.1,8.8,644.6,8.4,643.6,8.4z"/>
	<path class="st1" d="M643.7,5.1c-3.2,0-5.6,2.6-5.6,5.8c0,3.2,2.4,5.8,5.7,5.8c3.2,0,5.5-2.6,5.5-5.7C649.3,7.7,647,5.1,643.7,5.1z
		 M645.5,14.7c-0.2-0.3-0.4-0.9-0.6-1.8c-0.1-0.8-0.6-1.1-1.5-1.1h-0.8v2.9h-1.7V7.4c0.7-0.1,1.6-0.2,2.8-0.2c1.4,0,2,0.2,2.5,0.5
		c0.4,0.3,0.7,0.9,0.7,1.6c0,0.8-0.6,1.4-1.5,1.7v0.1c0.7,0.3,1.1,0.8,1.3,1.8c0.2,1.1,0.4,1.5,0.5,1.8H645.5z"/>
	<path class="st1" d="M634,0v21.8h19.3V0H634z M643.7,18.2c-4.1,0-7.5-3.2-7.5-7.3c0-4,3.3-7.2,7.5-7.2c4.2,0,7.4,3.2,7.4,7.2
		C651.1,15,647.9,18.2,643.7,18.2z"/>
</g>
</svg>
